<svg width="89" height="38" viewBox="0 0 89 38" fill="none" xmlns="http://www.w3.org/2000/svg">
<path d="M7.28493 21.6882C3.27601 21.6882 0 18.5249 0 13.8775V13.819C0 9.49297 2.96642 6.00817 7.00377 6.00817C11.3254 6.00817 13.7801 9.63589 13.7801 13.6144C13.7801 14.2249 13.2999 14.6601 12.7628 14.6601H2.2019C2.5115 17.9111 4.74184 19.7396 7.3418 19.7396C9.14881 19.7396 10.4756 19.0153 11.5497 17.9988C11.7204 17.8526 11.9162 17.7389 12.1721 17.7389C12.7091 17.7389 13.1324 18.1741 13.1324 18.6971C13.1324 18.9569 13.0188 19.22 12.7945 19.4213C11.4108 20.7886 9.77119 21.6882 7.28493 21.6882ZM11.6066 13.007C11.3791 10.2789 9.85645 7.89835 6.94691 7.89835C4.40382 7.89835 2.48623 10.0776 2.2019 13.007H11.6066Z" fill="black" fill-opacity="0.87"/>
<path d="M30.277 13.9066V13.8482C30.277 9.60993 33.4961 6.00817 37.9031 6.00817C42.2817 6.00817 45.5009 9.55145 45.5009 13.7897V13.8482C45.5009 18.0865 42.2532 21.6882 37.8463 21.6882C33.4677 21.6882 30.277 18.145 30.277 13.9066ZM43.2673 13.9066V13.8482C43.2673 10.6264 40.9233 7.98279 37.8463 7.98279C34.684 7.98279 32.5074 10.6232 32.5074 13.7897V13.8482C32.5074 17.0699 34.823 19.6844 37.9 19.6844C41.0654 19.6844 43.2673 17.0732 43.2673 13.9066Z" fill="black" fill-opacity="0.87"/>
<path d="M47.3648 17.3624V8.30449H46.1769C45.6683 8.30449 45.2166 7.84006 45.2166 7.3172C45.2166 6.76509 45.6683 6.32989 46.1769 6.32989H47.3648V2.78661C47.3648 2.17604 47.8165 1.65316 48.4389 1.65316C49.0328 1.65316 49.5414 2.17604 49.5414 2.78661V6.32989H53.326C53.863 6.32989 54.3148 6.79431 54.3148 7.3172C54.3148 7.8693 53.863 8.30449 53.326 8.30449H49.5414V17.0734C49.5414 18.9019 50.5302 19.5709 51.9992 19.5709C52.7605 19.5709 53.1554 19.3663 53.326 19.3663C53.8346 19.3663 54.258 19.8015 54.258 20.3244C54.258 20.7303 54.0052 21.0518 53.6356 21.1948C53.0133 21.4546 52.3372 21.6007 51.4906 21.6007C49.1434 21.6007 47.3648 20.412 47.3648 17.3624Z" fill="black" fill-opacity="0.87"/>
<path d="M62.2758 21.6882C58.2637 21.6882 54.9877 18.5249 54.9877 13.8775V13.819C54.9877 9.49297 57.9541 6.00817 61.9914 6.00817C66.3131 6.00817 68.7678 9.63589 68.7678 13.6144C68.7678 14.2249 68.2876 14.6601 67.7505 14.6601H57.1896C57.4992 17.9111 59.7295 19.7396 62.3295 19.7396C64.1365 19.7396 65.4633 19.0153 66.5374 17.9988C66.708 17.8526 66.9038 17.7389 67.1598 17.7389C67.6968 17.7389 68.1201 18.1741 68.1201 18.6971C68.1201 18.9569 68.0064 19.22 67.7821 19.4213C66.4016 20.7886 64.762 21.6882 62.2758 21.6882ZM66.5974 13.007C66.3732 10.2789 64.8473 7.89835 61.9377 7.89835C59.3947 7.89835 57.4739 10.0776 57.1927 13.007H66.5974Z" fill="black" fill-opacity="0.87"/>
<path d="M71.1181 1.13346C71.1181 0.522884 71.5982 0 72.1922 0C72.8145 0 73.2948 0.522884 73.2948 1.13346V20.3535C73.2948 20.9933 72.8429 21.487 72.2206 21.487C71.5982 21.487 71.1181 20.9933 71.1181 20.3535V1.13346Z" fill="black" fill-opacity="0.87"/>
<path d="M27.7938 21.6721C26.8082 21.6786 25.9837 20.9738 25.7814 19.9768C25.5793 18.9797 25.1938 18.0704 24.5273 17.3039C23.1878 15.7612 20.8754 15.7677 19.5422 17.3201C18.9009 18.0704 18.5092 18.9505 18.3165 19.9216C18.1174 20.9154 17.334 21.6526 16.3957 21.6819C15.3595 21.7143 14.5161 21.0745 14.2854 20.0482C14.0169 18.8595 14.7783 17.7196 15.9755 17.476C17.0718 17.2519 18.0637 16.7712 18.8061 15.8813C19.9181 14.5465 19.7475 12.5849 18.4491 11.445C17.7099 10.7954 16.8506 10.4024 15.9092 10.2043C14.9046 9.99326 14.2222 9.12932 14.2349 8.05111C14.2475 7.06379 14.9899 6.20314 15.9629 6.044C17.0781 5.86213 18.0795 6.6156 18.3165 7.77507C18.5376 8.85978 18.9767 9.84384 19.7728 10.6201C21.0618 11.8737 23.0488 11.8574 24.3409 10.6005C24.4546 10.4901 24.5999 10.3862 24.7484 10.3407C25.0738 10.2368 25.4118 10.396 25.5761 10.6883C25.7499 10.9968 25.7057 11.3638 25.4466 11.6301C25.058 12.0296 24.7769 12.4972 24.6474 13.0461C24.3346 14.4004 24.739 15.5144 25.7814 16.3815C26.4954 16.9759 27.3262 17.3169 28.2203 17.515C29.2059 17.7326 29.8947 18.6322 29.8504 19.6553C29.8062 20.7042 29.0575 21.5454 28.0465 21.6786C27.9644 21.6819 27.8791 21.6721 27.7938 21.6721Z" fill="black" fill-opacity="0.87"/>
<path d="M29.841 8.12268C29.841 9.30484 28.9375 10.2272 27.7813 10.2272C26.6471 10.2272 25.7499 9.28861 25.7531 8.10966C25.7531 6.95024 26.6598 6.02464 27.797 6.02138C28.9343 6.01489 29.841 6.95023 29.841 8.12268Z" fill="black" fill-opacity="0.87"/>
<path d="M6.69 31.0482C6.69 31.8482 6.54 32.5182 6.24 33.0582C5.94667 33.5982 5.52333 34.0048 4.97 34.2782C4.41667 34.5515 3.74667 34.6882 2.96 34.6882H0.97V27.5482H3.17C3.89 27.5482 4.51333 27.6815 5.04 27.9482C5.56667 28.2148 5.97333 28.6082 6.26 29.1282C6.54667 29.6415 6.69 30.2815 6.69 31.0482ZM5.74 31.0782C5.74 30.4448 5.63333 29.9248 5.42 29.5182C5.21333 29.1115 4.90667 28.8115 4.5 28.6182C4.1 28.4182 3.61333 28.3182 3.04 28.3182H1.87V33.9182H2.84C3.80667 33.9182 4.53 33.6815 5.01 33.2082C5.49667 32.7282 5.74 32.0182 5.74 31.0782ZM10.2247 29.2282C10.6847 29.2282 11.078 29.3282 11.4047 29.5282C11.738 29.7282 11.9914 30.0115 12.1647 30.3782C12.3447 30.7382 12.4347 31.1615 12.4347 31.6482V32.1782H8.76469C8.77802 32.7848 8.93135 33.2482 9.22469 33.5682C9.52469 33.8815 9.94135 34.0382 10.4747 34.0382C10.8147 34.0382 11.1147 34.0082 11.3747 33.9482C11.6414 33.8815 11.9147 33.7882 12.1947 33.6682V34.4382C11.9214 34.5582 11.6514 34.6448 11.3847 34.6982C11.118 34.7582 10.8014 34.7882 10.4347 34.7882C9.92802 34.7882 9.47802 34.6848 9.08469 34.4782C8.69802 34.2715 8.39469 33.9648 8.17469 33.5582C7.96135 33.1448 7.85469 32.6415 7.85469 32.0482C7.85469 31.4615 7.95135 30.9582 8.14469 30.5382C8.34469 30.1182 8.62135 29.7948 8.97469 29.5682C9.33469 29.3415 9.75135 29.2282 10.2247 29.2282ZM10.2147 29.9482C9.79469 29.9482 9.46135 30.0848 9.21469 30.3582C8.97469 30.6248 8.83135 30.9982 8.78469 31.4782H11.5147C11.5147 31.1715 11.468 30.9048 11.3747 30.6782C11.2814 30.4515 11.138 30.2748 10.9447 30.1482C10.758 30.0148 10.5147 29.9482 10.2147 29.9482ZM17.2892 33.2082C17.2892 33.5548 17.2026 33.8448 17.0292 34.0782C16.8559 34.3115 16.6092 34.4882 16.2892 34.6082C15.9692 34.7282 15.5892 34.7882 15.1492 34.7882C14.7759 34.7882 14.4526 34.7582 14.1792 34.6982C13.9126 34.6382 13.6759 34.5548 13.4692 34.4482V33.6482C13.6826 33.7548 13.9392 33.8548 14.2392 33.9482C14.5459 34.0348 14.8559 34.0782 15.1692 34.0782C15.6159 34.0782 15.9392 34.0082 16.1392 33.8682C16.3392 33.7215 16.4392 33.5282 16.4392 33.2882C16.4392 33.1548 16.4026 33.0348 16.3292 32.9282C16.2559 32.8215 16.1226 32.7148 15.9292 32.6082C15.7426 32.5015 15.4726 32.3815 15.1192 32.2482C14.7726 32.1148 14.4759 31.9815 14.2292 31.8482C13.9826 31.7148 13.7926 31.5548 13.6592 31.3682C13.5259 31.1815 13.4592 30.9415 13.4592 30.6482C13.4592 30.1948 13.6426 29.8448 14.0092 29.5982C14.3826 29.3515 14.8692 29.2282 15.4692 29.2282C15.7959 29.2282 16.0992 29.2615 16.3792 29.3282C16.6659 29.3882 16.9326 29.4748 17.1792 29.5882L16.8792 30.2882C16.7326 30.2215 16.5759 30.1648 16.4092 30.1182C16.2492 30.0648 16.0859 30.0248 15.9192 29.9982C15.7526 29.9648 15.5826 29.9482 15.4092 29.9482C15.0492 29.9482 14.7726 30.0082 14.5792 30.1282C14.3926 30.2415 14.2992 30.3982 14.2992 30.5982C14.2992 30.7448 14.3426 30.8715 14.4292 30.9782C14.5159 31.0782 14.6592 31.1782 14.8592 31.2782C15.0659 31.3715 15.3392 31.4848 15.6792 31.6182C16.0192 31.7448 16.3092 31.8748 16.5492 32.0082C16.7892 32.1415 16.9726 32.3048 17.0992 32.4982C17.2259 32.6848 17.2892 32.9215 17.2892 33.2082ZM19.4644 29.3282V34.6882H18.5844V29.3282H19.4644ZM19.0344 27.3182C19.1677 27.3182 19.2844 27.3648 19.3844 27.4582C19.491 27.5448 19.5444 27.6848 19.5444 27.8782C19.5444 28.0648 19.491 28.2048 19.3844 28.2982C19.2844 28.3915 19.1677 28.4382 19.0344 28.4382C18.8877 28.4382 18.7644 28.3915 18.6644 28.2982C18.5644 28.2048 18.5144 28.0648 18.5144 27.8782C18.5144 27.6848 18.5644 27.5448 18.6644 27.4582C18.7644 27.3648 18.8877 27.3182 19.0344 27.3182ZM23.0625 29.2282C23.4158 29.2282 23.7325 29.2948 24.0125 29.4282C24.2992 29.5615 24.5425 29.7648 24.7425 30.0382H24.7925L24.9125 29.3282H25.6125V34.7782C25.6125 35.2848 25.5258 35.7082 25.3525 36.0482C25.1792 36.3948 24.9158 36.6548 24.5625 36.8282C24.2092 37.0015 23.7592 37.0882 23.2125 37.0882C22.8258 37.0882 22.4692 37.0582 22.1425 36.9982C21.8225 36.9448 21.5358 36.8615 21.2825 36.7482V35.9382C21.4558 36.0248 21.6458 36.0982 21.8525 36.1582C22.0592 36.2248 22.2825 36.2748 22.5225 36.3082C22.7625 36.3415 23.0092 36.3582 23.2625 36.3582C23.7225 36.3582 24.0825 36.2215 24.3425 35.9482C24.6092 35.6815 24.7425 35.3148 24.7425 34.8482V34.6382C24.7425 34.5582 24.7458 34.4448 24.7525 34.2982C24.7592 34.1448 24.7658 34.0382 24.7725 33.9782H24.7325C24.5458 34.2515 24.3125 34.4548 24.0325 34.5882C23.7592 34.7215 23.4392 34.7882 23.0725 34.7882C22.3792 34.7882 21.8358 34.5448 21.4425 34.0582C21.0558 33.5715 20.8625 32.8915 20.8625 32.0182C20.8625 31.4448 20.9492 30.9515 21.1225 30.5382C21.3025 30.1182 21.5558 29.7948 21.8825 29.5682C22.2092 29.3415 22.6025 29.2282 23.0625 29.2282ZM23.1825 29.9682C22.8825 29.9682 22.6258 30.0482 22.4125 30.2082C22.2058 30.3682 22.0458 30.6015 21.9325 30.9082C21.8258 31.2148 21.7725 31.5882 21.7725 32.0282C21.7725 32.6882 21.8925 33.1948 22.1325 33.5482C22.3792 33.8948 22.7358 34.0682 23.2025 34.0682C23.4758 34.0682 23.7092 34.0348 23.9025 33.9682C24.0958 33.8948 24.2558 33.7848 24.3825 33.6382C24.5092 33.4848 24.6025 33.2915 24.6625 33.0582C24.7225 32.8248 24.7525 32.5482 24.7525 32.2282V32.0182C24.7525 31.5315 24.6958 31.1382 24.5825 30.8382C24.4758 30.5382 24.3058 30.3182 24.0725 30.1782C23.8392 30.0382 23.5425 29.9682 23.1825 29.9682ZM29.8948 29.2282C30.5348 29.2282 31.0182 29.3848 31.3448 29.6982C31.6715 30.0048 31.8348 30.5048 31.8348 31.1982V34.6882H30.9648V31.2582C30.9648 30.8248 30.8682 30.5015 30.6748 30.2882C30.4815 30.0748 30.1782 29.9682 29.7648 29.9682C29.1715 29.9682 28.7615 30.1348 28.5348 30.4682C28.3082 30.8015 28.1948 31.2815 28.1948 31.9082V34.6882H27.3148V29.3282H28.0248L28.1548 30.0582H28.2048C28.3248 29.8715 28.4715 29.7182 28.6448 29.5982C28.8248 29.4715 29.0215 29.3782 29.2348 29.3182C29.4482 29.2582 29.6682 29.2282 29.8948 29.2282ZM38.1041 27.5482C39.0375 27.5482 39.7175 27.7315 40.1441 28.0982C40.5708 28.4648 40.7841 28.9815 40.7841 29.6482C40.7841 29.9415 40.7341 30.2248 40.6341 30.4982C40.5408 30.7648 40.3841 31.0048 40.1641 31.2182C39.9441 31.4315 39.6508 31.6015 39.2841 31.7282C38.9175 31.8482 38.4675 31.9082 37.9341 31.9082H37.1141V34.6882H36.2141V27.5482H38.1041ZM38.0241 28.3182H37.1141V31.1382H37.8341C38.2875 31.1382 38.6641 31.0915 38.9641 30.9982C39.2641 30.8982 39.4875 30.7415 39.6341 30.5282C39.7808 30.3148 39.8541 30.0348 39.8541 29.6882C39.8541 29.2282 39.7075 28.8848 39.4141 28.6582C39.1208 28.4315 38.6575 28.3182 38.0241 28.3182ZM43.0288 34.6882H42.1488V27.0882H43.0288V34.6882ZM46.757 29.2382C47.4103 29.2382 47.8936 29.3815 48.207 29.6682C48.5203 29.9548 48.677 30.4115 48.677 31.0382V34.6882H48.037L47.867 33.9282H47.827C47.6736 34.1215 47.5136 34.2848 47.347 34.4182C47.187 34.5448 47.0003 34.6382 46.787 34.6982C46.5803 34.7582 46.327 34.7882 46.027 34.7882C45.707 34.7882 45.417 34.7315 45.157 34.6182C44.9036 34.5048 44.7036 34.3315 44.557 34.0982C44.4103 33.8582 44.337 33.5582 44.337 33.1982C44.337 32.6648 44.547 32.2548 44.967 31.9682C45.387 31.6748 46.0336 31.5148 46.907 31.4882L47.817 31.4582V31.1382C47.817 30.6915 47.7203 30.3815 47.527 30.2082C47.3336 30.0348 47.0603 29.9482 46.707 29.9482C46.427 29.9482 46.1603 29.9915 45.907 30.0782C45.6536 30.1582 45.417 30.2515 45.197 30.3582L44.927 29.6982C45.1603 29.5715 45.437 29.4648 45.757 29.3782C46.077 29.2848 46.4103 29.2382 46.757 29.2382ZM47.017 32.0982C46.3503 32.1248 45.887 32.2315 45.627 32.4182C45.3736 32.6048 45.247 32.8682 45.247 33.2082C45.247 33.5082 45.337 33.7282 45.517 33.8682C45.7036 34.0082 45.9403 34.0782 46.227 34.0782C46.6803 34.0782 47.057 33.9548 47.357 33.7082C47.657 33.4548 47.807 33.0682 47.807 32.5482V32.0682L47.017 32.0982ZM49.4924 29.3282H50.4324L51.5924 32.3782C51.6591 32.5582 51.7191 32.7315 51.7724 32.8982C51.8324 33.0648 51.8858 33.2282 51.9324 33.3882C51.9791 33.5415 52.0158 33.6915 52.0424 33.8382H52.0824C52.1224 33.6715 52.1858 33.4548 52.2724 33.1882C52.3591 32.9148 52.4491 32.6415 52.5424 32.3682L53.6324 29.3282H54.5824L52.2724 35.4282C52.1458 35.7615 51.9958 36.0515 51.8224 36.2982C51.6558 36.5515 51.4491 36.7448 51.2024 36.8782C50.9624 37.0182 50.6691 37.0882 50.3224 37.0882C50.1624 37.0882 50.0224 37.0782 49.9024 37.0582C49.7824 37.0448 49.6791 37.0282 49.5924 37.0082V36.3082C49.6658 36.3215 49.7524 36.3348 49.8524 36.3482C49.9591 36.3615 50.0691 36.3682 50.1824 36.3682C50.3891 36.3682 50.5658 36.3282 50.7124 36.2482C50.8658 36.1748 50.9958 36.0648 51.1024 35.9182C51.2091 35.7782 51.2991 35.6115 51.3724 35.4182L51.6524 34.7082L49.4924 29.3282ZM57.3301 29.2282C57.6834 29.2282 58.0001 29.2948 58.2801 29.4282C58.5667 29.5615 58.8101 29.7648 59.0101 30.0382H59.0601L59.1801 29.3282H59.8801V34.7782C59.8801 35.2848 59.7934 35.7082 59.6201 36.0482C59.4467 36.3948 59.1834 36.6548 58.8301 36.8282C58.4767 37.0015 58.0267 37.0882 57.4801 37.0882C57.0934 37.0882 56.7367 37.0582 56.4101 36.9982C56.0901 36.9448 55.8034 36.8615 55.5501 36.7482V35.9382C55.7234 36.0248 55.9134 36.0982 56.1201 36.1582C56.3267 36.2248 56.5501 36.2748 56.7901 36.3082C57.0301 36.3415 57.2767 36.3582 57.5301 36.3582C57.9901 36.3582 58.3501 36.2215 58.6101 35.9482C58.8767 35.6815 59.0101 35.3148 59.0101 34.8482V34.6382C59.0101 34.5582 59.0134 34.4448 59.0201 34.2982C59.0267 34.1448 59.0334 34.0382 59.0401 33.9782H59.0001C58.8134 34.2515 58.5801 34.4548 58.3001 34.5882C58.0267 34.7215 57.7067 34.7882 57.3401 34.7882C56.6467 34.7882 56.1034 34.5448 55.7101 34.0582C55.3234 33.5715 55.1301 32.8915 55.1301 32.0182C55.1301 31.4448 55.2167 30.9515 55.3901 30.5382C55.5701 30.1182 55.8234 29.7948 56.1501 29.5682C56.4767 29.3415 56.8701 29.2282 57.3301 29.2282ZM57.4501 29.9682C57.1501 29.9682 56.8934 30.0482 56.6801 30.2082C56.4734 30.3682 56.3134 30.6015 56.2001 30.9082C56.0934 31.2148 56.0401 31.5882 56.0401 32.0282C56.0401 32.6882 56.1601 33.1948 56.4001 33.5482C56.6467 33.8948 57.0034 34.0682 57.4701 34.0682C57.7434 34.0682 57.9767 34.0348 58.1701 33.9682C58.3634 33.8948 58.5234 33.7848 58.6501 33.6382C58.7767 33.4848 58.8701 33.2915 58.9301 33.0582C58.9901 32.8248 59.0201 32.5482 59.0201 32.2282V32.0182C59.0201 31.5315 58.9634 31.1382 58.8501 30.8382C58.7434 30.5382 58.5734 30.3182 58.3401 30.1782C58.1067 30.0382 57.8101 29.9682 57.4501 29.9682ZM64.0824 29.2282C64.1824 29.2282 64.2891 29.2348 64.4024 29.2482C64.5224 29.2548 64.6258 29.2682 64.7124 29.2882L64.6024 30.0982C64.5158 30.0782 64.4191 30.0615 64.3124 30.0482C64.2124 30.0348 64.1158 30.0282 64.0224 30.0282C63.8158 30.0282 63.6191 30.0715 63.4324 30.1582C63.2458 30.2448 63.0791 30.3682 62.9324 30.5282C62.7858 30.6815 62.6691 30.8682 62.5824 31.0882C62.5024 31.3082 62.4624 31.5548 62.4624 31.8282V34.6882H61.5824V29.3282H62.3024L62.4024 30.3082H62.4424C62.5558 30.1082 62.6924 29.9282 62.8524 29.7682C63.0124 29.6015 63.1958 29.4715 63.4024 29.3782C63.6091 29.2782 63.8358 29.2282 64.0824 29.2282ZM70.178 31.9982C70.178 32.4448 70.118 32.8415 69.998 33.1882C69.8846 33.5282 69.718 33.8182 69.498 34.0582C69.2846 34.2982 69.0213 34.4815 68.708 34.6082C68.4013 34.7282 68.058 34.7882 67.678 34.7882C67.3246 34.7882 66.998 34.7282 66.698 34.6082C66.398 34.4815 66.138 34.2982 65.918 34.0582C65.698 33.8182 65.5246 33.5282 65.398 33.1882C65.278 32.8415 65.218 32.4448 65.218 31.9982C65.218 31.4048 65.318 30.9048 65.518 30.4982C65.718 30.0848 66.0046 29.7715 66.378 29.5582C66.7513 29.3382 67.1946 29.2282 67.708 29.2282C68.1946 29.2282 68.6213 29.3382 68.988 29.5582C69.3613 29.7715 69.6513 30.0848 69.858 30.4982C70.0713 30.9048 70.178 31.4048 70.178 31.9982ZM66.128 31.9982C66.128 32.4182 66.1813 32.7848 66.288 33.0982C66.4013 33.4048 66.5746 33.6415 66.808 33.8082C67.0413 33.9748 67.338 34.0582 67.698 34.0582C68.058 34.0582 68.3546 33.9748 68.588 33.8082C68.8213 33.6415 68.9913 33.4048 69.098 33.0982C69.2113 32.7848 69.268 32.4182 69.268 31.9982C69.268 31.5715 69.2113 31.2082 69.098 30.9082C68.9846 30.6082 68.8113 30.3782 68.578 30.2182C68.3513 30.0515 68.0546 29.9682 67.688 29.9682C67.1413 29.9682 66.7446 30.1482 66.498 30.5082C66.2513 30.8682 66.128 31.3648 66.128 31.9982ZM76.0527 29.3282V34.6882H75.3327L75.2027 33.9782H75.1627C75.0493 34.1648 74.9027 34.3182 74.7227 34.4382C74.5427 34.5582 74.346 34.6448 74.1327 34.6982C73.9193 34.7582 73.696 34.7882 73.4627 34.7882C73.036 34.7882 72.676 34.7215 72.3827 34.5882C72.096 34.4482 71.8793 34.2348 71.7327 33.9482C71.586 33.6615 71.5127 33.2915 71.5127 32.8382V29.3282H72.4027V32.7782C72.4027 33.2048 72.4993 33.5248 72.6927 33.7382C72.886 33.9515 73.186 34.0582 73.5927 34.0582C73.9927 34.0582 74.306 33.9848 74.5327 33.8382C74.766 33.6848 74.9293 33.4648 75.0227 33.1782C75.1227 32.8848 75.1727 32.5315 75.1727 32.1182V29.3282H76.0527ZM80.3343 29.2282C80.9743 29.2282 81.4576 29.3848 81.7843 29.6982C82.111 30.0048 82.2743 30.5048 82.2743 31.1982V34.6882H81.4043V31.2582C81.4043 30.8248 81.3076 30.5015 81.1143 30.2882C80.921 30.0748 80.6176 29.9682 80.2043 29.9682C79.611 29.9682 79.201 30.1348 78.9743 30.4682C78.7476 30.8015 78.6343 31.2815 78.6343 31.9082V34.6882H77.7543V29.3282H78.4643L78.5943 30.0582H78.6443C78.7643 29.8715 78.911 29.7182 79.0843 29.5982C79.2643 29.4715 79.461 29.3782 79.6743 29.3182C79.8876 29.2582 80.1076 29.2282 80.3343 29.2282ZM85.8359 34.7882C85.1693 34.7882 84.6359 34.5582 84.2359 34.0982C83.8359 33.6315 83.6359 32.9382 83.6359 32.0182C83.6359 31.0982 83.8359 30.4048 84.2359 29.9382C84.6426 29.4648 85.1793 29.2282 85.8459 29.2282C86.1259 29.2282 86.3693 29.2648 86.5759 29.3382C86.7826 29.4048 86.9626 29.4982 87.1159 29.6182C87.2693 29.7382 87.3993 29.8715 87.5059 30.0182H87.5659C87.5593 29.9315 87.5459 29.8048 87.5259 29.6382C87.5126 29.4648 87.5059 29.3282 87.5059 29.2282V27.0882H88.3859V34.6882H87.6759L87.5459 33.9682H87.5059C87.3993 34.1215 87.2693 34.2615 87.1159 34.3882C86.9626 34.5082 86.7793 34.6048 86.5659 34.6782C86.3593 34.7515 86.1159 34.7882 85.8359 34.7882ZM85.9759 34.0582C86.5426 34.0582 86.9393 33.9048 87.1659 33.5982C87.3993 33.2848 87.5159 32.8148 87.5159 32.1882V32.0282C87.5159 31.3615 87.4059 30.8515 87.1859 30.4982C86.9659 30.1382 86.5593 29.9582 85.9659 29.9582C85.4926 29.9582 85.1359 30.1482 84.8959 30.5282C84.6626 30.9015 84.5459 31.4048 84.5459 32.0382C84.5459 32.6782 84.6626 33.1748 84.8959 33.5282C85.1359 33.8815 85.4959 34.0582 85.9759 34.0582Z" fill="black" fill-opacity="0.87"/>
</svg>
